<svg width="20" height="20" viewBox="0 0 20 20" fill="none" xmlns="http://www.w3.org/2000/svg">
<path d="M0.616333 0.683838H19.0265V9.88893C19.0265 14.9728 14.9053 19.094 9.82143 19.094C4.7376 19.094 0.616333 14.9728 0.616333 9.88893V0.683838Z" fill="#005F56"/>
<path d="M13.1658 5.8845L10.3531 4.83103C10.0616 4.72364 9.58605 4.72364 9.29455 4.83103L6.48188 5.8845C5.93981 6.08906 5.50001 6.72319 5.50001 7.30107V11.4434C5.50001 11.8576 5.77105 12.4048 6.10345 12.6502L8.91612 14.7521C9.41217 15.1254 10.2253 15.1254 10.7213 14.7521L13.534 12.6502C13.8664 12.3997 14.1375 11.8576 14.1375 11.4434V7.30107C14.1426 6.72319 13.7028 6.08906 13.1658 5.8845ZM10.2048 10.3336V11.6786C10.2048 11.8883 10.031 12.0621 9.82129 12.0621C9.61162 12.0621 9.43774 11.8883 9.43774 11.6786V10.3336C8.92123 10.17 8.5428 9.68928 8.5428 9.12163C8.5428 8.41591 9.11556 7.84314 9.82129 7.84314C10.527 7.84314 11.0998 8.41591 11.0998 9.12163C11.0998 9.69439 10.7213 10.17 10.2048 10.3336Z" fill="white"/>
</svg>
