<svg width="25" height="25" viewBox="0 0 25 25" fill="none" xmlns="http://www.w3.org/2000/svg">
<g clip-path="url(#clip0_1_950)">
<path fill-rule="evenodd" clip-rule="evenodd" d="M2.25261 12.5472H4.52547H20.4355H22.7084L12.4805 2.31934L2.25261 12.5472ZM4.52541 20.5023V12.5473H20.4355V20.5023C20.4355 21.1051 20.196 21.6832 19.7697 22.1095C19.3435 22.5357 18.7654 22.7752 18.1626 22.7752H6.79828C6.19548 22.7752 5.61736 22.5357 5.19112 22.1095C4.76487 21.6832 4.52541 21.1051 4.52541 20.5023Z" fill="white"/>
<path d="M2.25261 12.5472L1.6327 11.9273C1.38197 12.178 1.30697 12.5551 1.44266 12.8827C1.57836 13.2103 1.89802 13.4239 2.25261 13.4239V12.5472ZM22.7084 12.5472V13.4239C23.063 13.4239 23.3826 13.2103 23.5183 12.8827C23.654 12.5551 23.579 12.178 23.3283 11.9273L22.7084 12.5472ZM12.4805 2.31934L13.1004 1.69943C12.936 1.53502 12.713 1.44266 12.4805 1.44266C12.248 1.44266 12.025 1.53502 11.8606 1.69943L12.4805 2.31934ZM4.52541 12.5473V11.6706C4.04124 11.6706 3.64874 12.0631 3.64874 12.5473H4.52541ZM20.4355 12.5473H21.3121C21.3121 12.0631 20.9196 11.6706 20.4355 11.6706V12.5473ZM19.7697 22.1095L19.1498 21.4896L19.1498 21.4896L19.7697 22.1095ZM5.19112 22.1095L5.81102 21.4896H5.81102L5.19112 22.1095ZM4.52547 11.6705H2.25261V13.4239H4.52547V11.6705ZM20.4355 11.6705H4.52547V13.4239H20.4355V11.6705ZM22.7084 11.6705H20.4355V13.4239H22.7084V11.6705ZM11.8606 2.93924L22.0885 13.1671L23.3283 11.9273L13.1004 1.69943L11.8606 2.93924ZM2.87251 13.1671L13.1004 2.93924L11.8606 1.69943L1.6327 11.9273L2.87251 13.1671ZM3.64874 12.5473V20.5023H5.40209V12.5473H3.64874ZM20.4355 11.6706H4.52541V13.424H20.4355V11.6706ZM21.3121 20.5023V12.5473H19.5588V20.5023H21.3121ZM20.3896 22.7294C20.9803 22.1387 21.3121 21.3376 21.3121 20.5023H19.5588C19.5588 20.8726 19.4117 21.2277 19.1498 21.4896L20.3896 22.7294ZM18.1626 23.6518C18.9979 23.6518 19.799 23.32 20.3897 22.7294L19.1498 21.4896C18.888 21.7514 18.5329 21.8985 18.1626 21.8985V23.6518ZM6.79828 23.6518H18.1626V21.8985H6.79828V23.6518ZM4.57122 22.7294C5.16187 23.32 5.96297 23.6518 6.79828 23.6518V21.8985C6.42798 21.8985 6.07286 21.7514 5.81102 21.4896L4.57122 22.7294ZM3.64874 20.5023C3.64874 21.3376 3.98056 22.1387 4.57122 22.7294L5.81102 21.4896C5.54919 21.2277 5.40209 20.8726 5.40209 20.5023H3.64874Z" fill="white"/>
<path d="M9.41212 14.0817L11.4577 16.1273L15.5489 12.0361" stroke="#005F56" stroke-width="1.75335" stroke-linecap="round" stroke-linejoin="round"/>
</g>
<defs>
<clipPath id="clip0_1_950">
<rect width="24.5469" height="24.5469" fill="white" transform="translate(0.207031 0.273926)"/>
</clipPath>
</defs>
</svg>
