<svg width="51" height="50" viewBox="0 0 51 50" fill="none" xmlns="http://www.w3.org/2000/svg">
<circle cx="25.4805" cy="24.5472" r="24.5469" fill="white"/>
<circle cx="25.4805" cy="24.5472" r="24.1086" stroke="#005F56" stroke-opacity="0.25" stroke-width="0.876676"/>
<circle cx="25.4813" cy="24.5474" r="21.4786" fill="#005F56" fill-opacity="0.25"/>
<g clip-path="url(#clip0_1_947)">
<path fill-rule="evenodd" clip-rule="evenodd" d="M15.2526 24.5472H17.5255H33.4355H35.7084L25.4805 14.3193L15.2526 24.5472ZM17.5254 32.5023V24.5473H33.4355V32.5023C33.4355 33.1051 33.196 33.6832 32.7697 34.1095C32.3435 34.5357 31.7654 34.7752 31.1626 34.7752H19.7983C19.1955 34.7752 18.6174 34.5357 18.1911 34.1095C17.7649 33.6832 17.5254 33.1051 17.5254 32.5023Z" fill="white"/>
<path d="M15.2526 24.5472L14.6327 23.9273C14.382 24.178 14.307 24.5551 14.4427 24.8827C14.5784 25.2103 14.898 25.4239 15.2526 25.4239V24.5472ZM35.7084 24.5472V25.4239C36.063 25.4239 36.3826 25.2103 36.5183 24.8827C36.654 24.5551 36.579 24.178 36.3283 23.9273L35.7084 24.5472ZM25.4805 14.3193L26.1004 13.6994C25.936 13.535 25.713 13.4427 25.4805 13.4427C25.248 13.4427 25.025 13.535 24.8606 13.6994L25.4805 14.3193ZM17.5254 24.5473V23.6706C17.0412 23.6706 16.6487 24.0631 16.6487 24.5473H17.5254ZM33.4355 24.5473H34.3121C34.3121 24.0631 33.9196 23.6706 33.4355 23.6706V24.5473ZM32.7697 34.1095L32.1498 33.4896L32.1498 33.4896L32.7697 34.1095ZM18.1911 34.1095L18.811 33.4896H18.811L18.1911 34.1095ZM17.5255 23.6705H15.2526V25.4239H17.5255V23.6705ZM33.4355 23.6705H17.5255V25.4239H33.4355V23.6705ZM35.7084 23.6705H33.4355V25.4239H35.7084V23.6705ZM24.8606 14.9392L35.0885 25.1671L36.3283 23.9273L26.1004 13.6994L24.8606 14.9392ZM15.8725 25.1671L26.1004 14.9392L24.8606 13.6994L14.6327 23.9273L15.8725 25.1671ZM16.6487 24.5473V32.5023H18.4021V24.5473H16.6487ZM33.4355 23.6706H17.5254V25.424H33.4355V23.6706ZM34.3121 32.5023V24.5473H32.5588V32.5023H34.3121ZM33.3896 34.7294C33.9803 34.1387 34.3121 33.3376 34.3121 32.5023H32.5588C32.5588 32.8726 32.4117 33.2277 32.1498 33.4896L33.3896 34.7294ZM31.1626 35.6518C31.9979 35.6518 32.799 35.32 33.3897 34.7294L32.1498 33.4896C31.888 33.7514 31.5329 33.8985 31.1626 33.8985V35.6518ZM19.7983 35.6518H31.1626V33.8985H19.7983V35.6518ZM17.5712 34.7294C18.1619 35.32 18.963 35.6518 19.7983 35.6518V33.8985C19.428 33.8985 19.0729 33.7514 18.811 33.4896L17.5712 34.7294ZM16.6487 32.5023C16.6487 33.3376 16.9806 34.1387 17.5712 34.7294L18.811 33.4896C18.5492 33.2277 18.4021 32.8726 18.4021 32.5023H16.6487Z" fill="white"/>
<path d="M22.4121 26.0817L24.4577 28.1273L28.5489 24.0361" stroke="#005F56" stroke-width="1.75335" stroke-linecap="round" stroke-linejoin="round"/>
</g>
<path d="M31.6163 30.6838H50.0265V39.8889C50.0265 44.9728 45.9053 49.094 40.8214 49.094C35.7376 49.094 31.6163 44.9728 31.6163 39.8889V30.6838Z" fill="#005F56"/>
<path d="M44.1658 35.8845L41.3531 34.831C41.0616 34.7236 40.586 34.7236 40.2946 34.831L37.4819 35.8845C36.9398 36.0891 36.5 36.7232 36.5 37.3011V41.4434C36.5 41.8576 36.771 42.4048 37.1035 42.6502L39.9161 44.7521C40.4122 45.1254 41.2253 45.1254 41.7213 44.7521L44.534 42.6502C44.8664 42.3997 45.1375 41.8576 45.1375 41.4434V37.3011C45.1426 36.7232 44.7028 36.0891 44.1658 35.8845ZM41.2048 40.3336V41.6786C41.2048 41.8883 41.031 42.0621 40.8213 42.0621C40.6116 42.0621 40.4377 41.8883 40.4377 41.6786V40.3336C39.9212 40.17 39.5428 39.6893 39.5428 39.1216C39.5428 38.4159 40.1156 37.8431 40.8213 37.8431C41.527 37.8431 42.0998 38.4159 42.0998 39.1216C42.0998 39.6944 41.7213 40.17 41.2048 40.3336Z" fill="white"/>
<defs>
<clipPath id="clip0_1_947">
<rect width="24.5469" height="24.5469" fill="white" transform="translate(13.207 12.2739)"/>
</clipPath>
</defs>
</svg>
