<svg width="25" height="25" viewBox="0 0 25 25" fill="none" xmlns="http://www.w3.org/2000/svg">
<path d="M12.4805 21.8863L22.7084 14.7267H18.6274L18.6172 3.47607H6.34376V14.7267H2.25261L12.4805 21.8863Z" fill="white" stroke="white" stroke-width="1.75335" stroke-linecap="round" stroke-linejoin="round"/>
<g filter="url(#filter0_d_1_979)">
<path d="M9.41212 14.7266L15.5489 8.58984" stroke="#005F56" stroke-width="1.75335" stroke-linecap="round" stroke-linejoin="round"/>
</g>
<g filter="url(#filter1_d_1_979)">
<path d="M9.92352 9.61263C10.206 9.61263 10.4349 9.38367 10.4349 9.10124C10.4349 8.8188 10.206 8.58984 9.92352 8.58984C9.64108 8.58984 9.41212 8.8188 9.41212 9.10124C9.41212 9.38367 9.64108 9.61263 9.92352 9.61263Z" fill="#005F56"/>
<path d="M9.92352 9.61263C10.206 9.61263 10.4349 9.38367 10.4349 9.10124C10.4349 8.8188 10.206 8.58984 9.92352 8.58984C9.64108 8.58984 9.41212 8.8188 9.41212 9.10124C9.41212 9.38367 9.64108 9.61263 9.92352 9.61263Z" stroke="#005F56" stroke-width="1.75335" stroke-linecap="round" stroke-linejoin="round"/>
</g>
<path d="M15.0375 14.7269C15.3199 14.7269 15.5489 14.4979 15.5489 14.2155C15.5489 13.9331 15.3199 13.7041 15.0375 13.7041C14.755 13.7041 14.5261 13.9331 14.5261 14.2155C14.5261 14.4979 14.755 14.7269 15.0375 14.7269Z" fill="#005F56" stroke="#005F56" stroke-width="1.75335" stroke-linecap="round" stroke-linejoin="round"/>
<defs>
<filter id="filter0_d_1_979" x="6.7821" y="5.95978" width="14.9035" height="14.9035" filterUnits="userSpaceOnUse" color-interpolation-filters="sRGB">
<feFlood flood-opacity="0" result="BackgroundImageFix"/>
<feColorMatrix in="SourceAlpha" type="matrix" values="0 0 0 0 0 0 0 0 0 0 0 0 0 0 0 0 0 0 127 0" result="hardAlpha"/>
<feOffset dx="1.75335" dy="1.75335"/>
<feGaussianBlur stdDeviation="1.75335"/>
<feComposite in2="hardAlpha" operator="out"/>
<feColorMatrix type="matrix" values="0 0 0 0 0.439216 0 0 0 0 0.396078 0 0 0 0 0.941176 0 0 0 0.1 0"/>
<feBlend mode="normal" in2="BackgroundImageFix" result="effect1_dropShadow_1_979"/>
<feBlend mode="normal" in="SourceGraphic" in2="effect1_dropShadow_1_979" result="shape"/>
</filter>
<filter id="filter1_d_1_979" x="6.7821" y="5.95978" width="9.78954" height="9.78953" filterUnits="userSpaceOnUse" color-interpolation-filters="sRGB">
<feFlood flood-opacity="0" result="BackgroundImageFix"/>
<feColorMatrix in="SourceAlpha" type="matrix" values="0 0 0 0 0 0 0 0 0 0 0 0 0 0 0 0 0 0 127 0" result="hardAlpha"/>
<feOffset dx="1.75335" dy="1.75335"/>
<feGaussianBlur stdDeviation="1.75335"/>
<feComposite in2="hardAlpha" operator="out"/>
<feColorMatrix type="matrix" values="0 0 0 0 0.439216 0 0 0 0 0.396078 0 0 0 0 0.941176 0 0 0 0.1 0"/>
<feBlend mode="normal" in2="BackgroundImageFix" result="effect1_dropShadow_1_979"/>
<feBlend mode="normal" in="SourceGraphic" in2="effect1_dropShadow_1_979" result="shape"/>
</filter>
</defs>
</svg>
