<svg width="20" height="20" viewBox="0 0 20 20" fill="none" xmlns="http://www.w3.org/2000/svg">
<rect x="0.616333" y="0.817871" width="18.4102" height="18.4102" rx="9.20509" fill="#005F56"/>
<path d="M9.43788 8.01831V9.4809L8.92137 9.30191C8.66056 9.20986 8.50203 9.12292 8.50203 8.67801C8.50203 8.31492 8.77307 8.01831 9.10547 8.01831H9.43788Z" fill="white"/>
<path d="M11.1408 11.3681C11.1408 11.7312 10.8698 12.0278 10.5374 12.0278H10.205V10.5652L10.7215 10.7442C10.9823 10.8362 11.1408 10.9232 11.1408 11.3681Z" fill="white"/>
<path d="M11.9642 4.90918H7.67868C5.81721 4.90918 4.70748 6.0189 4.70748 7.88038V12.1659C4.70748 14.0273 5.81721 15.1371 7.67868 15.1371H11.9642C13.8256 15.1371 14.9354 14.0273 14.9354 12.1659V7.88038C14.9354 6.0189 13.8256 4.90918 11.9642 4.90918ZM10.9772 10.0231C11.3761 10.1612 11.9079 10.4527 11.9079 11.3681C11.9079 12.1556 11.2942 12.7949 10.5374 12.7949H10.205V13.0915C10.205 13.3012 10.0311 13.475 9.82142 13.475C9.61175 13.475 9.43788 13.3012 9.43788 13.0915V12.7949H9.25378C8.41509 12.7949 7.73493 12.084 7.73493 11.2147C7.73493 11.005 7.90369 10.8311 8.11848 10.8311C8.32815 10.8311 8.50203 11.005 8.50203 11.2147C8.50203 11.6647 8.83955 12.0278 9.25378 12.0278H9.43788V10.2942L8.66567 10.0231C8.26678 9.88504 7.73493 9.59355 7.73493 8.67815C7.73493 7.89061 8.34861 7.25136 9.10547 7.25136H9.43788V6.95476C9.43788 6.74508 9.61175 6.57121 9.82142 6.57121C10.0311 6.57121 10.205 6.74508 10.205 6.95476V7.25136H10.3891C11.2278 7.25136 11.9079 7.9622 11.9079 8.83157C11.9079 9.04124 11.7392 9.21512 11.5244 9.21512C11.3147 9.21512 11.1408 9.04124 11.1408 8.83157C11.1408 8.38155 10.8033 8.01846 10.3891 8.01846H10.205V9.75208L10.9772 10.0231Z" fill="white"/>
</svg>
