<svg width="21" height="21" viewBox="0 0 21 21" fill="none" xmlns="http://www.w3.org/2000/svg">
<path d="M14.5857 1.71533H6.00723C3.63836 1.71533 1.71802 3.63568 1.71802 6.00455V14.583C1.71802 16.9518 3.63836 18.8722 6.00723 18.8722H14.5857C16.9545 18.8722 18.8749 16.9518 18.8749 14.583V6.00455C18.8749 3.63568 16.9545 1.71533 14.5857 1.71533Z" stroke="white" stroke-width="1.28676" stroke-linecap="round" stroke-linejoin="round"/>
<path d="M13.7267 9.75325C13.8326 10.4672 13.7106 11.1963 13.3782 11.837C13.0458 12.4776 12.5199 12.9971 11.8752 13.3216C11.2305 13.6461 10.4999 13.759 9.78733 13.6444C9.07475 13.5297 8.41647 13.1933 7.90612 12.6829C7.39577 12.1726 7.05934 11.5143 6.94468 10.8017C6.83001 10.0891 6.94296 9.35855 7.26745 8.71386C7.59194 8.06917 8.11144 7.54322 8.75208 7.21081C9.39272 6.87839 10.1219 6.75645 10.8358 6.86231C11.564 6.9703 12.2382 7.30965 12.7588 7.83022C13.2794 8.3508 13.6187 9.025 13.7267 9.75325Z" stroke="white" stroke-width="1.28676" stroke-linecap="round" stroke-linejoin="round"/>
<path d="M15.0117 5.57568H15.0213" stroke="white" stroke-width="1.28676" stroke-linecap="round" stroke-linejoin="round"/>
</svg>
