<svg width="16" height="17" viewBox="0 0 16 17" fill="none" xmlns="http://www.w3.org/2000/svg">
<g clip-path="url(#clip0_1_1030)">
<path d="M13.9977 7.35541C13.9977 12.0221 7.99767 16.0221 7.99767 16.0221C7.99767 16.0221 1.99767 12.0221 1.99767 7.35541C1.99767 5.76411 2.62981 4.23799 3.75503 3.11277C4.88025 1.98755 6.40637 1.35541 7.99767 1.35541C9.58897 1.35541 11.1151 1.98755 12.2403 3.11277C13.3655 4.23799 13.9977 5.76411 13.9977 7.35541Z" stroke="#6C727F" stroke-width="0.999134" stroke-linecap="round" stroke-linejoin="round"/>
<path d="M7.99859 9.35516C9.10316 9.35516 9.99859 8.45973 9.99859 7.35516C9.99859 6.25059 9.10316 5.35516 7.99859 5.35516C6.89402 5.35516 5.99859 6.25059 5.99859 7.35516C5.99859 8.45973 6.89402 9.35516 7.99859 9.35516Z" stroke="#6C727F" stroke-width="0.999134" stroke-linecap="round" stroke-linejoin="round"/>
</g>
<defs>
<clipPath id="clip0_1_1030">
<rect width="16" height="16" fill="white" transform="translate(0 0.688843)"/>
</clipPath>
</defs>
</svg>
