<svg width="19" height="19" viewBox="0 0 19 19" fill="none" xmlns="http://www.w3.org/2000/svg">
<path d="M18.0609 13.7991V16.3726C18.0619 16.6115 18.0129 16.848 17.9172 17.0669C17.8215 17.2858 17.6811 17.4823 17.5051 17.6438C17.329 17.8053 17.1212 17.9283 16.8949 18.0049C16.6685 18.0814 16.4287 18.1098 16.1908 18.0883C13.5511 17.8015 11.0154 16.8995 8.7876 15.4547C6.7149 14.1377 4.95762 12.3804 3.64054 10.3077C2.19077 8.06974 1.28854 5.52177 1.00696 2.87018C0.985526 2.63296 1.01372 2.39387 1.08975 2.16814C1.16577 1.94241 1.28797 1.73499 1.44855 1.55907C1.60914 1.38316 1.80459 1.2426 2.02247 1.14636C2.24035 1.05013 2.47588 1.00031 2.71407 1.00008H5.2876C5.70392 0.995986 6.10752 1.14341 6.42318 1.41488C6.73884 1.68635 6.94502 2.06333 7.00329 2.47557C7.11191 3.29916 7.31335 4.10781 7.60378 4.88611C7.71919 5.19315 7.74417 5.52685 7.67575 5.84765C7.60734 6.16845 7.44839 6.46292 7.21775 6.69616L6.12829 7.78562C7.34947 9.93327 9.12769 11.7115 11.2753 12.9327L12.3648 11.8432C12.598 11.6126 12.8925 11.4536 13.2133 11.3852C13.5341 11.3168 13.8678 11.3418 14.1749 11.4572C14.9532 11.7476 15.7618 11.9491 16.5854 12.0577C17.0021 12.1165 17.3827 12.3264 17.6547 12.6474C17.9268 12.9685 18.0713 13.3784 18.0609 13.7991Z" stroke="white" stroke-width="1.28676" stroke-linecap="round" stroke-linejoin="round"/>
</svg>
