<svg width="20" height="20" viewBox="0 0 20 20" fill="none" xmlns="http://www.w3.org/2000/svg">
<path d="M0.616333 9.54218C0.616333 8.43842 1.13601 7.39908 2.01901 6.73682L7.71741 2.46302C8.96423 1.5279 10.6786 1.52791 11.9254 2.46303L17.6238 6.73682C18.5068 7.39908 19.0265 8.43842 19.0265 9.54218V19.2952H0.616333V9.54218Z" fill="#005F56"/>
<path d="M8.79864 12.6472C8.58897 12.6472 8.41509 12.8211 8.41509 13.0308V13.7979C8.41509 14.0075 8.58897 14.1814 8.79864 14.1814C9.00831 14.1814 9.18218 14.0075 9.18218 13.7979V13.0308C9.18218 12.8211 9.00831 12.6472 8.79864 12.6472Z" fill="white"/>
<path d="M14.9354 15.5876H14.424V9.82423C14.424 9.50717 14.2808 9.21056 14.0302 9.01623L10.4504 6.23425C10.0822 5.94275 9.56061 5.94275 9.19241 6.23425L5.61265 9.01623C5.36207 9.21056 5.21888 9.50717 5.21888 9.81912L5.19331 15.5876H4.70748C4.49781 15.5876 4.32394 15.7564 4.32394 15.9712C4.32394 16.1809 4.49781 16.3547 4.70748 16.3547H14.9354C15.145 16.3547 15.3189 16.1809 15.3189 15.9712C15.3189 15.7564 15.145 15.5876 14.9354 15.5876ZM9.05433 8.17243H10.5885C10.7982 8.17243 10.9721 8.3463 10.9721 8.55598C10.9721 8.76565 10.7982 8.93952 10.5885 8.93952H9.05433C8.84466 8.93952 8.67079 8.76565 8.67079 8.55598C8.67079 8.3463 8.84466 8.17243 9.05433 8.17243ZM12.3784 15.5876H7.26445V11.1129C7.26445 10.6885 7.60709 10.3459 8.03154 10.3459H11.6113C12.0358 10.3459 12.3784 10.6885 12.3784 11.1129V15.5876Z" fill="white"/>
</svg>
