<svg width="25" height="26" viewBox="0 0 25 26" fill="none" xmlns="http://www.w3.org/2000/svg">
<g clip-path="url(#clip0_1_990)">
<g filter="url(#filter0_d_1_990)">
<path d="M4.29821 8.65731V6.61174C4.29821 6.06922 4.51372 5.54892 4.89734 5.1653C5.28096 4.78168 5.80126 4.56616 6.34378 4.56616H8.38936" stroke="white" stroke-width="1.75335" stroke-linecap="round" stroke-linejoin="round" shape-rendering="crispEdges"/>
</g>
<g filter="url(#filter1_d_1_990)">
<path d="M4.29821 16.8396V18.8852C4.29821 19.4277 4.51372 19.948 4.89734 20.3316C5.28096 20.7152 5.80126 20.9308 6.34378 20.9308H8.38936" stroke="white" stroke-width="1.75335" stroke-linecap="round" stroke-linejoin="round" shape-rendering="crispEdges"/>
</g>
<path d="M16.5717 4.56616H18.6172C19.1598 4.56616 19.6801 4.78168 20.0637 5.1653C20.4473 5.54892 20.6628 6.06922 20.6628 6.61174V8.65731" stroke="white" stroke-width="1.75335" stroke-linecap="round" stroke-linejoin="round"/>
<path d="M16.5717 20.9308H18.6172C19.1598 20.9308 19.6801 20.7152 20.0637 20.3316C20.4473 19.948 20.6628 19.4277 20.6628 18.8852V16.8396" stroke="white" stroke-width="1.75335" stroke-linecap="round" stroke-linejoin="round"/>
<path d="M12.4805 18.8849L8.90071 13.771C8.5561 13.1481 8.37996 12.4462 8.3897 11.7344C8.39944 11.0227 8.59471 10.3258 8.95623 9.71257C9.31775 9.09939 9.833 8.59114 10.4511 8.23804C11.0691 7.88494 11.7686 7.69922 12.4805 7.69922C13.1923 7.69922 13.8918 7.88494 14.5099 8.23804C15.1279 8.59114 15.6432 9.09939 16.0047 9.71257C16.3662 10.3258 16.5615 11.0227 16.5712 11.7344C16.581 12.4462 16.4048 13.1481 16.0602 13.771L12.4805 18.8849Z" fill="white" stroke="white" stroke-width="1.75335" stroke-linecap="round" stroke-linejoin="round"/>
<path d="M12.4805 11.7253V11.7356" stroke="#005F56" stroke-width="5.26005" stroke-linecap="round" stroke-linejoin="round"/>
</g>
<defs>
<filter id="filter0_d_1_990" x="1.66818" y="1.9361" width="12.8579" height="12.8579" filterUnits="userSpaceOnUse" color-interpolation-filters="sRGB">
<feFlood flood-opacity="0" result="BackgroundImageFix"/>
<feColorMatrix in="SourceAlpha" type="matrix" values="0 0 0 0 0 0 0 0 0 0 0 0 0 0 0 0 0 0 127 0" result="hardAlpha"/>
<feOffset dx="1.75335" dy="1.75335"/>
<feGaussianBlur stdDeviation="1.75335"/>
<feComposite in2="hardAlpha" operator="out"/>
<feColorMatrix type="matrix" values="0 0 0 0 0.439216 0 0 0 0 0.396078 0 0 0 0 0.941176 0 0 0 0.1 0"/>
<feBlend mode="normal" in2="BackgroundImageFix" result="effect1_dropShadow_1_990"/>
<feBlend mode="normal" in="SourceGraphic" in2="effect1_dropShadow_1_990" result="shape"/>
</filter>
<filter id="filter1_d_1_990" x="1.66818" y="14.2095" width="12.8579" height="12.8579" filterUnits="userSpaceOnUse" color-interpolation-filters="sRGB">
<feFlood flood-opacity="0" result="BackgroundImageFix"/>
<feColorMatrix in="SourceAlpha" type="matrix" values="0 0 0 0 0 0 0 0 0 0 0 0 0 0 0 0 0 0 127 0" result="hardAlpha"/>
<feOffset dx="1.75335" dy="1.75335"/>
<feGaussianBlur stdDeviation="1.75335"/>
<feComposite in2="hardAlpha" operator="out"/>
<feColorMatrix type="matrix" values="0 0 0 0 0.439216 0 0 0 0 0.396078 0 0 0 0 0.941176 0 0 0 0.1 0"/>
<feBlend mode="normal" in2="BackgroundImageFix" result="effect1_dropShadow_1_990"/>
<feBlend mode="normal" in="SourceGraphic" in2="effect1_dropShadow_1_990" result="shape"/>
</filter>
<clipPath id="clip0_1_990">
<rect width="24.5469" height="24.5469" fill="white" transform="translate(0.207031 0.474854)"/>
</clipPath>
</defs>
</svg>
