<svg width="25" height="25" viewBox="0 0 25 25" fill="none" xmlns="http://www.w3.org/2000/svg">
<g clip-path="url(#clip0_1_968)">
<g filter="url(#filter0_d_1_968)">
<path d="M5.32095 21.8194V5.45476C5.32095 4.91224 5.53647 4.39194 5.92009 4.00832C6.30371 3.6247 6.82401 3.40918 7.36653 3.40918H17.5944C18.1369 3.40918 18.6572 3.6247 19.0409 4.00832C19.4245 4.39194 19.64 4.91224 19.64 5.45476V21.8194L16.5716 19.7738L14.526 21.8194L12.4805 19.7738L10.4349 21.8194L8.38932 19.7738L5.32095 21.8194Z" fill="white"/>
<path d="M5.32095 21.8194V5.45476C5.32095 4.91224 5.53647 4.39194 5.92009 4.00832C6.30371 3.6247 6.82401 3.40918 7.36653 3.40918H17.5944C18.1369 3.40918 18.6572 3.6247 19.0409 4.00832C19.4245 4.39194 19.64 4.91224 19.64 5.45476V21.8194L16.5716 19.7738L14.526 21.8194L12.4805 19.7738L10.4349 21.8194L8.38932 19.7738L5.32095 21.8194Z" stroke="white" stroke-width="1.75335" stroke-linecap="round" stroke-linejoin="round"/>
</g>
<g filter="url(#filter1_d_1_968)">
<path d="M14.5261 8.52295H11.9691C11.5622 8.52295 11.172 8.68459 10.8843 8.9723C10.5966 9.26002 10.4349 9.65024 10.4349 10.0571C10.4349 10.464 10.5966 10.8542 10.8843 11.142C11.172 11.4297 11.5622 11.5913 11.9691 11.5913H12.9919C13.3988 11.5913 13.789 11.753 14.0767 12.0407C14.3645 12.3284 14.5261 12.7186 14.5261 13.1255C14.5261 13.5324 14.3645 13.9226 14.0767 14.2103C13.789 14.498 13.3988 14.6597 12.9919 14.6597H10.4349M12.4805 14.6597V16.1939M12.4805 6.98877V8.52295" stroke="#005F56" stroke-width="1.75335" stroke-linecap="round" stroke-linejoin="round" shape-rendering="crispEdges"/>
</g>
</g>
<defs>
<filter id="filter0_d_1_968" x="2.69093" y="0.779119" width="23.0858" height="27.177" filterUnits="userSpaceOnUse" color-interpolation-filters="sRGB">
<feFlood flood-opacity="0" result="BackgroundImageFix"/>
<feColorMatrix in="SourceAlpha" type="matrix" values="0 0 0 0 0 0 0 0 0 0 0 0 0 0 0 0 0 0 127 0" result="hardAlpha"/>
<feOffset dx="1.75335" dy="1.75335"/>
<feGaussianBlur stdDeviation="1.75335"/>
<feComposite in2="hardAlpha" operator="out"/>
<feColorMatrix type="matrix" values="0 0 0 0 0.439216 0 0 0 0 0.396078 0 0 0 0 0.941176 0 0 0 0.1 0"/>
<feBlend mode="normal" in2="BackgroundImageFix" result="effect1_dropShadow_1_968"/>
<feBlend mode="normal" in="SourceGraphic" in2="effect1_dropShadow_1_968" result="shape"/>
</filter>
<filter id="filter1_d_1_968" x="7.80491" y="4.35871" width="12.8579" height="17.9719" filterUnits="userSpaceOnUse" color-interpolation-filters="sRGB">
<feFlood flood-opacity="0" result="BackgroundImageFix"/>
<feColorMatrix in="SourceAlpha" type="matrix" values="0 0 0 0 0 0 0 0 0 0 0 0 0 0 0 0 0 0 127 0" result="hardAlpha"/>
<feOffset dx="1.75335" dy="1.75335"/>
<feGaussianBlur stdDeviation="1.75335"/>
<feComposite in2="hardAlpha" operator="out"/>
<feColorMatrix type="matrix" values="0 0 0 0 0.439216 0 0 0 0 0.396078 0 0 0 0 0.941176 0 0 0 0.1 0"/>
<feBlend mode="normal" in2="BackgroundImageFix" result="effect1_dropShadow_1_968"/>
<feBlend mode="normal" in="SourceGraphic" in2="effect1_dropShadow_1_968" result="shape"/>
</filter>
<clipPath id="clip0_1_968">
<rect width="24.5469" height="24.5469" fill="white" transform="translate(0.207031 0.34082)"/>
</clipPath>
</defs>
</svg>
