<svg width="20" height="20" viewBox="0 0 20 20" fill="none" xmlns="http://www.w3.org/2000/svg">
<rect x="0.616333" y="0.750977" width="18.4102" height="18.4102" rx="9.20509" fill="#005F56"/>
<path d="M9.82222 4.84204C6.99933 4.84204 4.70828 7.13309 4.70828 9.95598C4.70828 12.7789 6.99933 15.0699 9.82222 15.0699C12.6451 15.0699 14.9362 12.7789 14.9362 9.95598C14.9362 7.13309 12.6451 4.84204 9.82222 4.84204ZM8.14996 7.73653C8.56419 7.73653 8.90683 8.07405 8.90683 8.4934C8.90683 8.90762 8.56931 9.25026 8.14996 9.25026C7.73574 9.25026 7.3931 8.91274 7.3931 8.4934C7.3931 8.07405 7.73062 7.73653 8.14996 7.73653ZM8.21133 11.8993C8.13462 11.976 8.03746 12.0118 7.94029 12.0118C7.84313 12.0118 7.74596 11.976 7.66925 11.8993C7.52095 11.751 7.52095 11.5055 7.66925 11.3572L11.0189 8.00757C11.1672 7.85927 11.4127 7.85927 11.561 8.00757C11.7093 8.15587 11.7093 8.40134 11.561 8.54965L8.21133 11.8993ZM11.4945 12.1754C11.0803 12.1754 10.7376 11.8379 10.7376 11.4186C10.7376 11.0043 11.0751 10.6617 11.4945 10.6617C11.9087 10.6617 12.2513 10.9992 12.2513 11.4186C12.2513 11.8379 11.9138 12.1754 11.4945 12.1754Z" fill="white"/>
</svg>
